Patient4_TMGait_0pt2_03_left_04_GRF.mot
version=1
nRows=52
nColumns=19
inDegrees=no
endheader
time	F1x	F1y	F1z	M1x	M1y	M1z	F2x	F2y	F2z	M2x	M2y	M2z	EC1x	EC1y	EC1z	EC2x	EC2y	EC2z
7.2	-4.7753	2.1664	0.36869	-0.33869	-2.019	-0.8316	-16.6077	768.8784	-45.1359	307.1261	55.7184	781.3065	-0.0592	0.0182	-0.0073	-0.0462	0.0165	0.9585
7.2219	-3.7429	1.712	0.32834	-0.31997	-1.6014	-0.22763	-17.3719	771.4106	-44.6664	308.5472	55.4167	783.6496	-0.0592	0.0182	-0.0073	-0.0462	0.0165	0.9585
7.2439	-2.858	1.3479	0.30824	-0.31734	-1.2581	0.32018	-18.4159	777.8491	-44.1186	311.5836	55.0101	789.5747	-0.0592	0.0182	-0.0073	-0.0462	0.0165	0.9585
7.2658	-2.1793	1.1	0.30472	-0.32923	-1.0065	0.77845	-19.5586	789.2328	-43.5728	316.6156	54.5072	799.9989	-0.0592	0.0182	-0.0073	-0.0462	0.0165	0.9585
7.2877	-1.7074	0.96382	0.3116	-0.35092	-0.84127	1.1349	-20.5326	805.5951	-43.1076	323.6218	53.8964	814.8239	-0.0592	0.0182	-0.0073	-0.0462	0.0165	0.9585
7.3096	-1.413	0.9114	0.32256	-0.37453	-0.74799	1.3806	-21.0318	825.5377	-42.7668	332.0103	53.1205	832.5319	-0.0592	0.0182	-0.0073	-0.0462	0.0165	0.9585
7.3316	-1.2535	0.8949	0.33286	-0.39033	-0.70577	1.5087	-20.75	846.1845	-42.5459	340.6028	52.0736	850.1695	-0.0592	0.0182	-0.0073	-0.0462	0.0165	0.9585
7.3535	-1.1853	0.8515	0.33814	-0.38576	-0.69333	1.502	-19.4291	863.6962	-42.3908	347.8444	50.6161	863.8853	-0.0592	0.0182	-0.0073	-0.0462	0.0165	0.9585
7.3754	-1.172	0.70998	0.33341	-0.34431	-0.6908	1.3225	-16.9052	874.246	-42.1984	352.1973	48.5953	869.9191	-0.0592	0.0182	-0.0073	-0.0462	0.0165	0.9585
7.3974	-1.1824	0.39455	0.3133	-0.24476	-0.67899	0.91387	-13.1292	875.1264	-41.841	352.5834	45.8863	865.7101	-0.0592	0.0182	-0.0073	-0.0462	0.0165	0.9585
7.4193	-1.1892	-0.17365	0.27201	-0.062635	-0.6398	0.20555	-8.1649	865.4793	-41.2343	348.6728	42.4567	850.5959	-0.0592	0.0182	-0.0073	-0.0462	0.0165	0.9585
7.4412	-1.1677	-1.0653	0.20344	0.22549	-0.55814	-0.87395	-2.1913	846.4214	-40.3898	340.9303	38.4154	825.9051	-0.0592	0.0182	-0.0073	-0.0462	0.0165	0.9585
7.4631	-1.0941	-2.3252	0.10543	0.63434	-0.42554	-2.3715	4.5224	820.6923	-39.4155	330.4707	34.0046	794.5776	-0.0592	0.0182	-0.0073	-0.0462	0.0165	0.9585
7.4851	-0.94475	-3.9353	-0.018383	1.1588	-0.24045	-4.2615	11.6396	791.9639	-38.4796	318.7797	29.5522	760.4576	-0.0592	0.0182	-0.0073	-0.0462	0.0165	0.9585
7.507	-0.70289	-5.768	-0.15713	1.7625	-0.0091882	-6.3942	18.7785	764.0441	-37.7618	307.3958	25.4078	727.4977	-0.0592	0.0182	-0.0073	-0.0462	0.0165	0.9585
7.5289	-0.36238	-7.5334	-0.29019	2.3596	0.24481	-8.4283	25.5501	740.1811	-37.4025	297.6346	21.8716	699.0583	-0.0592	0.0182	-0.0073	-0.0462	0.0165	0.9585
7.5509	0.070276	-8.7124	-0.37977	2.7899	0.47069	-9.7475	31.5861	722.5312	-37.4652	290.3744	19.1501	677.389	-0.0592	0.0182	-0.0073	-0.0462	0.0165	0.9585
7.5728	0.56268	-8.4918	-0.36532	2.7972	0.58136	-9.391	36.561	711.826	-37.9266	285.9194	17.3486	663.308	-0.0592	0.0182	-0.0073	-0.0462	0.0165	0.9585
7.5947	1.0384	-5.7247	-0.16233	2.0151	0.44856	-6.0082	40.2261	707.3265	-38.7075	283.978	16.4818	656.1681	-0.0592	0.0182	-0.0073	-0.0462	0.0165	0.9585
7.6166	1.3567	1.056	0.33402	-0.02886	-0.099766	2.1151	42.4319	707.0618	-39.6859	283.7565	16.4802	654.1043	-0.0592	0.0182	-0.0073	-0.0462	0.0165	0.9585
7.6386	1.2925	13.5312	1.238	-3.8804	-1.2732	16.9168	43.1183	708.1891	-40.699	284.1047	17.2004	654.3864	-0.0592	0.0182	-0.0073	-0.0462	0.0165	0.9585
7.6605	0.52562	33.3354	2.6559	-10.0823	-3.2995	40.2534	42.3023	707.46	-41.5421	283.7047	18.4314	653.8727	-0.0592	0.0182	-0.0073	-0.0462	0.0165	0.9585
7.6824	-1.3296	61.6067	4.6579	-19.032	-6.3791	73.3722	40.0941	701.6015	-42.0041	281.2258	19.9228	649.38	-0.0592	0.0182	-0.0073	-0.0462	0.0165	0.9585
7.7044	-4.5267	98.4378	7.3055	-30.8031	-10.6611	116.2703	36.6854	687.677	-41.9011	275.4753	21.4184	638.0327	-0.0592	0.0182	-0.0073	-0.0462	0.0165	0.9585
7.7263	-8.994	142.2423	10.6215	-44.9278	-16.1416	166.9722	32.2836	663.6762	-41.0912	265.643	22.6976	617.8186	-0.0592	0.0182	-0.0073	-0.0462	0.0165	0.9585
7.7482	-14.1271	189.5896	14.4836	-60.3256	-22.4596	221.3926	27.1273	629.3071	-39.5087	251.6238	23.5977	588.3142	-0.0592	0.0182	-0.0073	-0.0462	0.0165	0.9585
7.7701	-19.0084	236.3288	18.5805	-75.6614	-28.9248	274.66	21.5826	586.5245	-37.2227	234.2203	24.03	551.1409	-0.0592	0.0182	-0.0073	-0.0462	0.0165	0.9585
7.7921	-23.047	279.8951	22.4593	-90.0975	-34.8026	323.8147	16.1615	539.1874	-34.4553	214.9984	23.9883	509.6559	-0.0592	0.0182	-0.0073	-0.0462	0.0165	0.9585
7.814	-26.1082	319.6053	25.7247	-103.3899	-39.596	368.1506	11.3675	491.7054	-31.4861	195.7449	23.5209	467.7381	-0.0592	0.0182	-0.0073	-0.0462	0.0165	0.9585
7.8359	-28.2637	355.4571	28.1769	-115.4954	-43.1099	407.7781	7.4908	447.6285	-28.5458	177.9007	22.7132	428.5321	-0.0592	0.0182	-0.0073	-0.0462	0.0165	0.9585
7.8579	-29.5881	387.4952	29.8329	-126.3717	-45.3948	442.8404	4.5531	409.0193	-25.8159	162.3041	21.7076	393.8926	-0.0592	0.0182	-0.0073	-0.0462	0.0165	0.9585
7.8798	-30.1451	415.6996	30.8533	-135.9561	-46.6547	473.3744	2.4061	376.5074	-23.4349	149.211	20.6763	364.4108	-0.0592	0.0182	-0.0073	-0.0462	0.0165	0.9585
7.9017	-30.0225	440.0731	31.4228	-144.212	-47.1314	499.4083	0.87217	349.6936	-21.4732	138.4616	19.7454	339.7652	-0.0592	0.0182	-0.0073	-0.0462	0.0165	0.9585
7.9236	-29.3029	460.7931	31.6643	-151.1877	-47.0021	521.123	-0.1797	327.6491	-19.9177	129.6805	18.9529	319.167	-0.0592	0.0182	-0.0073	-0.0462	0.0165	0.9585
7.9456	-28.055	478.2278	31.6463	-157.0163	-46.3829	538.8982	-0.80875	309.3401	-18.7043	122.4443	18.2664	301.7477	-0.0592	0.0182	-0.0073	-0.0462	0.0165	0.9585
7.9675	-26.3485	492.8325	31.4133	-161.8706	-45.3636	553.2247	-1.0066	293.873	-17.7721	116.3771	17.6331	286.7673	-0.0592	0.0182	-0.0073	-0.0462	0.0165	0.9585
7.9894	-24.2551	505.0764	30.9968	-165.9287	-44.0135	564.6347	-0.73862	280.528	-17.08	111.1701	17.0103	273.6303	-0.0592	0.0182	-0.0073	-0.0462	0.0165	0.9585
8.0114	-21.8431	515.3982	30.4224	-169.3497	-42.3846	573.6609	-0.0052243	268.722	-16.5893	106.5713	16.3686	261.8496	-0.0592	0.0182	-0.0073	-0.0462	0.0165	0.9585
8.0333	-19.1754	524.1437	29.7151	-172.2509	-40.5221	580.7572	1.1245	257.9766	-16.2453	102.377	15.6892	251.0285	-0.0592	0.0182	-0.0073	-0.0462	0.0165	0.9585
8.0552	-16.3089	531.5618	28.9068	-174.7115	-38.4789	586.2681	2.5275	247.8114	-15.9865	98.3905	14.9627	240.7573	-0.0592	0.0182	-0.0073	-0.0462	0.0165	0.9585
8.0771	-13.304	537.9491	28.0412	-176.8262	-36.3198	590.5776	4.0587	237.593	-15.7491	94.3598	14.183	230.4673	-0.0592	0.0182	-0.0073	-0.0462	0.0165	0.9585
8.0991	-10.2385	543.8288	27.1989	-178.7628	-34.1523	594.3054	5.5568	226.4964	-15.4541	89.9601	13.333	219.397	-0.0592	0.0182	-0.0073	-0.0462	0.0165	0.9585
8.121	-7.2208	550.0448	26.5101	-180.7919	-32.1439	598.4065	6.8462	213.6354	-15.012	84.8442	12.392	206.7194	-0.0592	0.0182	-0.0073	-0.0462	0.0165	0.9585
8.1429	-4.3847	557.7351	26.1382	-183.2787	-30.5049	604.1427	7.7528	198.3065	-14.3455	78.7368	11.3557	191.7677	-0.0592	0.0182	-0.0073	-0.0462	0.0165	0.9585
8.1649	-1.8762	568.1405	26.2524	-186.6213	-29.4623	612.879	8.1335	180.1864	-13.4113	71.5125	10.2443	174.2252	-0.0592	0.0182	-0.0073	-0.0462	0.0165	0.9585
8.1868	0.14622	582.3111	26.9842	-191.1592	-29.2123	625.7762	7.9033	159.4709	-12.2075	63.2539	9.1	154.2644	-0.0592	0.0182	-0.0073	-0.0462	0.0165	0.9585
8.2087	1.5215	600.8658	28.3883	-197.0978	-29.8719	643.5417	7.0655	136.9117	-10.773	54.2647	7.9707	132.5818	-0.0592	0.0182	-0.0073	-0.0462	0.0165	0.9585
8.2306	2.1089	623.8788	30.4348	-204.4625	-31.4588	666.3037	5.7328	113.6558	-9.1835	45.0056	6.8933	110.2418	-0.0592	0.0182	-0.0073	-0.0462	0.0165	0.9585
8.2526	1.8196	650.8793	33.0411	-213.0867	-33.9142	693.6069	4.0948	90.9545	-7.5331	35.9779	5.8892	88.4127	-0.0592	0.0182	-0.0073	-0.0462	0.0165	0.9585
8.2745	0.63156	680.9412	36.1093	-222.6389	-37.1408	724.4954	2.3591	69.9083	-5.9165	27.6206	4.9699	68.1371	-0.0592	0.0182	-0.0073	-0.0462	0.0165	0.9585
8.2964	-1.401	712.9061	39.5293	-232.705	-40.9987	757.7367	0.72431	51.3233	-4.4171	20.2517	4.1349	50.1945	-0.0592	0.0182	-0.0073	-0.0462	0.0165	0.9585
8.3184	-4.1295	745.6389	43.1596	-242.8866	-45.2797	792.0646	-0.62755	35.6696	-3.1007	14.0545	3.372	35.0513	-0.0592	0.0182	-0.0073	-0.0462	0.0165	0.9585
